<svg xmlns="http://www.w3.org/2000/svg" viewBox="0 0 256 256" width="256" height="256">
  <defs>
    <linearGradient id="bg" x1="0%" y1="0%" x2="100%" y2="100%">
      <stop offset="0%" stop-color="#2a2a0d"/>
      <stop offset="100%" stop-color="#1a1a06"/>
    </linearGradient>
    <linearGradient id="book" x1="0%" y1="0%" x2="100%" y2="100%">
      <stop offset="0%" stop-color="#fbbf24"/>
      <stop offset="100%" stop-color="#d97706"/>
    </linearGradient>
    <linearGradient id="pag" x1="0%" y1="0%" x2="100%" y2="100%">
      <stop offset="0%" stop-color="#fb923c"/>
      <stop offset="100%" stop-color="#ea580c"/>
    </linearGradient>
  </defs>
  <rect width="256" height="256" rx="48" fill="url(#bg)"/>
  <path d="M128 92 v112 q-30 -6 -48 -24 q-18 18 -48 24 v-112 q30 -6 48 -24 q18 18 48 24 z" fill="none" stroke="url(#book)" stroke-width="3" stroke-linejoin="round"/>
  <path d="M128 92 v112 q30 -6 48 -24 q18 18 48 24 v-112 q-30 -6 -48 -24 q-18 18 -48 24 z" fill="none" stroke="url(#book)" stroke-width="3" stroke-linejoin="round"/>
  <line x1="128" y1="68" x2="128" y2="204" stroke="url(#book)" stroke-width="3" stroke-linecap="round"/>
  <g stroke="url(#pag)" stroke-width="2.5" stroke-linecap="round">
    <line x1="100" y1="108" x2="124" y2="108"/>
    <line x1="100" y1="120" x2="124" y2="120"/>
    <line x1="100" y1="132" x2="124" y2="132"/>
    <line x1="100" y1="144" x2="124" y2="144"/>
    <line x1="100" y1="156" x2="120" y2="156"/>
    <line x1="132" y1="108" x2="156" y2="108"/>
    <line x1="132" y1="120" x2="156" y2="120"/>
    <line x1="132" y1="132" x2="156" y2="132"/>
    <line x1="132" y1="144" x2="156" y2="144"/>
    <line x1="132" y1="156" x2="152" y2="156"/>
  </g>
</svg>
